HIERARCHY
ROOT SimulationBone
{
	OFFSET 0.000000 0.000000 0.000000
	CHANNELS 6 Xposition Yposition Zposition Zrotation Yrotation Xrotation 
	JOINT Hips
	{
		OFFSET 0.000000 0.000000 0.000000
		CHANNELS 6 Xposition Yposition Zposition Zrotation Yrotation Xrotation 
		JOINT LeftUpLeg
		{
			OFFSET 0.103458 1.857842 10.548504
			CHANNELS 3 Zrotation Yrotation Xrotation
			JOINT LeftLeg
			{
				OFFSET 43.500000 -0.000038 0.000000
				CHANNELS 3 Zrotation Yrotation Xrotation
				JOINT LeftFoot
				{
					OFFSET 42.372200 0.000008 0.000004
					CHANNELS 3 Zrotation Yrotation Xrotation
					JOINT LeftToe
					{
						OFFSET 17.299992 -0.000003 -0.000013
						CHANNELS 3 Zrotation Yrotation Xrotation
						End Site
						{
							OFFSET 0.000000 0.000000 0.000000
						}
					}
				}
			}
		}
		JOINT RightUpLeg
		{
			OFFSET 0.103456 1.857816 -10.548503
			CHANNELS 3 Zrotation Yrotation Xrotation
			JOINT RightLeg
			{
				OFFSET 43.500042 -0.000023 0.000008
				CHANNELS 3 Zrotation Yrotation Xrotation
				JOINT RightFoot
				{
					OFFSET 42.372265 -0.000008 0.000010
					CHANNELS 3 Zrotation Yrotation Xrotation
					JOINT RightToe
					{
						OFFSET 17.300022 0.000005 0.000000
						CHANNELS 3 Zrotation Yrotation Xrotation
						End Site
						{
							OFFSET 0.000000 0.000000 0.000000
						}
					}
				}
			}
		}
		JOINT Spine
		{
			OFFSET 6.901966 -2.603735 -0.000002
			CHANNELS 3 Zrotation Yrotation Xrotation
			JOINT Spine1
			{
				OFFSET 12.588103 0.000016 0.000000
				CHANNELS 3 Zrotation Yrotation Xrotation
				JOINT Spine2
				{
					OFFSET 12.343200 0.000002 -0.000002
					CHANNELS 3 Zrotation Yrotation Xrotation
					JOINT Neck
					{
						OFFSET 25.832891 -0.000029 0.000006
						CHANNELS 3 Zrotation Yrotation Xrotation
						JOINT Head
						{
							OFFSET 11.766613 0.000029 -0.000002
							CHANNELS 3 Zrotation Yrotation Xrotation
							End Site
							{
								OFFSET 0.000000 0.000000 0.000000
							}
						}
					}
					JOINT LeftShoulder
					{
						OFFSET 19.745903 -1.480385 6.000109
						CHANNELS 3 Zrotation Yrotation Xrotation
						JOINT LeftArm
						{
							OFFSET 11.284124 -0.000024 -0.000022
							CHANNELS 3 Zrotation Yrotation Xrotation
							JOINT LeftForeArm
							{
								OFFSET 33.000057 0.000000 0.000033
								CHANNELS 3 Zrotation Yrotation Xrotation
								JOINT LeftHand
								{
									OFFSET 25.199997 0.000045 -0.000004
									CHANNELS 3 Zrotation Yrotation Xrotation
									End Site
									{
										OFFSET 0.000000 0.000000 0.000000
									}
								}
							}
						}
					}
					JOINT RightShoulder
					{
						OFFSET 19.746105 -1.480396 -6.000069
						CHANNELS 3 Zrotation Yrotation Xrotation
						JOINT RightArm
						{
							OFFSET 11.284142 -0.000028 -0.000010
							CHANNELS 3 Zrotation Yrotation Xrotation
							JOINT RightForeArm
							{
								OFFSET 33.000084 0.000033 0.000011
								CHANNELS 3 Zrotation Yrotation Xrotation
								JOINT RightHand
								{
									OFFSET 25.199783 0.000119 0.000426
									CHANNELS 3 Zrotation Yrotation Xrotation
									End Site
									{
										OFFSET 0.000000 0.000000 0.000000
									}
								}
							}
						}
					}
				}
			}
		}
	}
}
MOTION
Frames: 11
Frame Time: 0.033333
191.235862 0.000000 -463.404239 0.000000 -50.926225 0.000000 -0.779973 89.283257 -1.498533 93.395483 -5.164618 177.814809 -173.257256 0.662596 174.990867 -16.743066 -3.791387 -5.791175 87.644837 2.919272 -6.322528 21.454551 0.003093 0.000001 155.847869 10.580989 -166.134899 -37.662927 -0.688956 4.414634 79.869814 -2.287618 3.305016 21.454560 -0.003102 -0.000016 8.145573 -2.129123 -0.019114 6.285476 -4.254090 -0.153577 5.966411 -4.254804 -0.127830 18.908814 -1.699110 -18.250011 -17.936674 15.279707 -25.005842 -156.178491 -80.897286 -25.715066 -20.053835 52.025715 26.866406 -37.176399 -18.648054 1.623047 3.065782 -21.061290 -2.153851 169.504313 73.871009 -9.360766 -12.092519 -58.109918 -37.789753 -37.447397 21.361702 -1.833109 -1.572890 27.068420 -10.534853 
192.392083 0.000000 -461.201795 0.000000 -52.592911 0.000000 -0.949155 89.076729 -1.564581 92.890851 -5.220636 178.345092 -171.263141 0.675704 174.726949 -15.287290 -3.771095 -6.185047 87.782923 3.074653 -7.030130 21.454546 0.003088 -0.000002 155.215366 10.023294 -163.111310 -30.832741 -1.212058 5.319809 78.097974 -3.075658 2.570067 21.454560 -0.003105 -0.000017 8.080261 -2.091070 -0.145020 6.159025 -4.171504 -0.400998 5.840032 -4.173722 -0.375752 18.920939 -1.361654 -18.260779 -18.435963 15.230067 -25.090319 -156.554930 -81.119732 -25.329019 -20.902042 51.354929 25.803041 -36.901115 -18.780095 1.624804 3.354851 -21.664260 -2.745688 170.114180 73.659581 -8.743399 -11.426952 -58.109535 -38.296987 -36.271163 21.333000 -1.801629 -0.601308 27.450501 -9.587639 
193.464026 0.000000 -458.902274 0.000000 -54.245273 0.000000 -1.164059 89.014343 -1.584359 92.475539 -4.828132 179.050447 -169.120825 0.136901 174.182077 -13.645427 -3.758330 -6.306583 87.581665 3.043982 -7.671197 21.454553 0.003099 0.000001 155.245241 9.022905 -161.360760 -24.731075 -1.003322 4.127415 75.487094 -2.750034 0.592427 21.454560 -0.003098 -0.000015 8.069829 -1.934712 -0.236436 6.139965 -3.854245 -0.575129 5.821091 -3.857510 -0.551801 18.487437 -1.383726 -18.354272 -18.535407 15.173421 -25.174978 -157.248891 -81.214542 -24.623681 -21.842998 50.729663 24.709866 -36.448242 -18.694521 1.608182 3.234149 -22.149429 -2.936894 171.115500 73.833320 -7.711910 -11.141154 -58.195807 -38.373328 -35.142280 20.980108 -1.751302 0.074714 27.636438 -8.775969 
194.463601 0.000000 -456.516936 0.000000 -55.885793 0.000000 -1.297329 88.812317 -1.551354 92.130121 -4.505315 179.728347 -167.435940 -0.422196 173.484483 -13.221662 -3.638087 -6.231876 87.644598 2.846687 -8.582933 21.454550 0.003088 -0.000003 155.039680 7.648694 -162.981236 -21.236293 -0.681381 3.719745 72.723783 -2.593304 0.222663 21.454560 -0.003111 -0.000018 8.067733 -1.770276 -0.302487 6.136272 -3.522124 -0.698402 5.817538 -3.526141 -0.677087 18.022593 -1.568161 -18.488467 -18.709398 15.139369 -25.322264 -158.548635 -81.240763 -23.305545 -22.201124 50.511909 24.156127 -35.863841 -19.104094 1.620583 3.388341 -22.220221 -3.933196 171.285735 74.079624 -7.529585 -10.488246 -58.171287 -38.678333 -34.115849 20.616970 -1.703725 0.144183 27.025933 -8.799376 
195.396305 0.000000 -454.056718 0.000000 -57.517575 0.000000 -1.424870 88.675980 -1.426358 91.985250 -3.774570 -179.781686 -165.782297 -1.524399 172.907564 -13.305080 -3.646926 -6.162098 87.337656 2.552280 -9.940630 21.454550 0.003095 -0.000001 155.251074 5.450001 -165.412360 -20.827528 -0.785117 2.574390 71.048529 -2.562957 -2.171766 21.454553 -0.003117 -0.000020 8.089107 -1.522136 -0.327833 6.177230 -3.024701 -0.736398 5.858688 -3.028969 -0.718086 18.005731 -1.636038 -18.509591 -19.365533 15.087671 -25.438300 -159.097003 -81.105648 -22.751656 -21.964813 50.642824 23.581636 -35.472126 -19.040170 1.607118 3.872885 -22.225815 -4.253494 169.966799 74.022489 -8.882002 -9.240301 -57.698030 -39.890716 -33.173095 20.338451 -1.664331 0.774862 25.989163 -8.049867 
196.275528 0.000000 -451.534174 0.000000 -59.144597 0.000000 -1.512413 88.548058 -1.161666 91.741358 -3.022887 -179.416997 -164.934411 -2.747797 172.813061 -14.777408 -3.712634 -6.402218 86.729018 2.386789 -11.558440 21.454557 0.003098 -0.000001 154.809953 3.311803 -170.541231 -24.062579 -0.151994 4.578882 72.665884 -4.259385 -3.169433 21.454558 -0.003116 -0.000019 8.072234 -1.268889 -0.338228 6.141290 -2.518156 -0.743220 5.822858 -2.522458 -0.727982 18.003218 -1.660397 -18.486090 -19.946763 14.831839 -25.415853 -159.739396 -81.277667 -22.097755 -20.723231 51.457754 23.817151 -35.504542 -19.113212 1.612605 4.702504 -22.291321 -5.196390 169.485707 74.047221 -9.373669 -8.288996 -57.104121 -41.066611 -32.438798 19.836341 -1.615857 2.081465 23.589047 -7.094891 
197.096291 0.000000 -448.959740 0.000000 -60.769878 0.000000 -1.278319 88.431297 -0.753821 91.974407 -2.337165 -179.339418 -164.202351 -3.983201 172.493887 -17.680445 -3.761010 -6.755116 85.269038 2.182512 -13.211619 21.454557 0.003092 0.000003 154.794230 1.515105 -173.752363 -27.936382 0.345004 5.697046 75.419557 -4.557434 -1.788064 21.454557 -0.003098 -0.000016 8.174022 -1.040540 -0.324733 6.342594 -2.061829 -0.705904 6.024284 -2.065916 -0.693430 17.592137 -1.709428 -18.484117 -20.141290 14.476282 -25.301334 -161.168190 -81.449439 -20.647126 -18.588532 52.742516 24.591454 -35.793197 -19.539525 1.647046 5.101322 -22.434390 -6.030326 169.937183 74.510131 -8.895585 -8.166799 -56.937410 -41.681192 -31.726642 19.484472 -1.577979 2.710831 20.839638 -6.689616 
197.884169 0.000000 -446.343655 0.000000 -62.394180 0.000000 -0.918351 88.596992 -0.288419 92.178795 -1.565662 -178.998796 -164.200671 -5.396896 171.682952 -21.578036 -3.547536 -6.888009 82.187926 1.750614 -14.073023 21.454553 0.003092 -0.000001 156.162317 0.123901 -172.444764 -29.400826 0.322047 4.449554 76.718645 -4.087216 -3.411742 21.454558 -0.003089 -0.000014 8.236363 -0.832777 -0.384763 6.466376 -1.642859 -0.815361 6.148176 -1.647624 -0.805429 17.258500 -1.485267 -18.374399 -20.095690 14.026621 -24.997321 -161.385486 -81.689459 -20.424079 -15.881266 54.031079 26.433768 -36.087554 -19.528163 1.653393 5.560430 -22.229138 -6.977902 170.647277 74.737952 -8.161442 -7.919079 -56.842774 -42.330825 -31.235705 19.140126 -1.545614 3.136500 18.225784 -6.385289 
198.636491 0.000000 -443.699645 0.000000 -64.017578 0.000000 -0.533100 88.870949 0.089375 92.305370 -1.307639 -178.378931 -165.566641 -6.591206 171.075297 -27.290941 -3.351193 -6.842862 77.874552 1.267160 -13.868799 21.454550 0.003094 0.000000 157.981715 -0.614303 -170.402578 -30.120981 0.116118 3.013527 78.650660 -3.399524 -4.951320 21.454557 -0.003114 -0.000020 8.237817 -0.756365 -0.462661 6.469598 -1.485811 -0.966813 6.151435 -1.491486 -0.957815 17.231083 -1.095790 -18.373516 -19.958822 13.572002 -24.796498 -161.925002 -82.246426 -19.871476 -13.187208 55.299069 28.815752 -36.068105 -19.124263 1.626793 5.622453 -21.145272 -6.912014 171.018907 75.024574 -7.771919 -6.631880 -57.104370 -43.105396 -31.587405 18.839451 -1.533750 3.529627 15.742532 -6.079604 
199.357138 0.000000 -441.030744 0.000000 -65.640430 0.000000 -0.093891 89.264740 0.456225 92.568694 -1.309986 -177.884015 -168.397945 -7.995406 169.562643 -35.690788 -2.718275 -6.199580 72.965121 0.362022 -13.345734 21.454555 0.003091 0.000000 160.442277 -1.261305 -168.904008 -29.976426 -0.132556 1.691081 80.405144 -2.649544 -6.033185 21.454557 -0.003116 -0.000019 8.235992 -0.731525 -0.467626 6.465761 -1.435904 -0.975327 6.147613 -1.441646 -0.966621 17.680884 -1.045855 -18.507854 -19.834130 13.429733 -24.873722 -163.685333 -82.415351 -18.088023 -10.941254 56.281858 31.279849 -35.628609 -19.052290 1.611629 4.605814 -18.662816 -5.198990 170.842593 75.026848 -7.952108 -4.923115 -56.916694 -44.530573 -32.380438 18.878829 -1.553212 3.607324 13.169910 -6.364313 
200.066856 0.000000 -438.327103 0.000000 -67.261243 0.000000 0.255984 89.605324 0.771792 93.185100 -1.090684 -177.453532 -171.503755 -9.567203 168.714401 -44.509570 -1.547677 -5.983297 68.562730 -0.644741 -14.164005 21.454558 0.003103 -0.000008 163.306039 -2.213499 -169.323436 -29.556646 0.304447 1.328725 81.761879 -2.457317 -6.584109 21.454558 -0.003115 -0.000020 8.334832 -0.652686 -0.439114 6.662337 -1.279149 -0.914986 6.344180 -1.284498 -0.907253 17.918907 -1.283586 -18.624208 -19.613764 13.608448 -25.034530 -162.439876 -82.252758 -19.350110 -9.783775 57.266983 32.345457 -35.228558 -18.973110 1.597038 3.356891 -14.038479 -0.772162 169.550704 75.077952 -9.271160 -3.774130 -56.498826 -45.945914 -33.214117 18.896857 -1.572661 3.699536 12.112421 -6.984802 
